<svg version="1.1" id="Layer_1" xmlns="http://www.w3.org/2000/svg" xmlns:xlink="http://www.w3.org/1999/xlink" x="0px" y="0px"
	 width="100%" viewBox="0 0 512 512" enable-background="new 0 0 512 512" xml:space="preserve">
<path fill="#000000" opacity="1.000000" stroke="none" 
	d="
M243.000000,1.000000 
	C332.961273,1.000000 422.922577,1.000000 512.941895,1.000000 
	C512.941895,171.554489 512.941895,342.109009 512.941895,513.000000 
	C437.644989,513.000000 362.289459,513.000000 286.208679,512.628113 
	C286.658844,511.843079 287.809784,511.331421 289.013489,511.032013 
	C301.024414,508.044037 313.044006,505.091034 325.449280,502.071899 
	C331.565033,499.842438 337.450287,498.008331 342.990875,495.432709 
	C359.835480,487.602295 376.337219,478.970398 390.065277,466.278198 
	C402.110779,455.141602 414.142334,443.791290 424.680054,431.272736 
	C437.882294,415.588745 447.545441,397.463776 454.928314,378.269867 
	C463.218781,356.716278 467.973328,334.348053 468.915741,311.289337 
	C469.535004,296.136536 468.681610,281.049530 466.146118,265.988281 
	C463.166656,248.289948 458.194122,231.254013 450.889648,214.973694 
	C442.672546,196.659332 432.561676,179.399246 418.937012,164.450790 
	C412.706421,157.614868 406.317322,150.923401 400.311401,144.014435 
	C411.323578,135.702927 410.965057,118.781158 399.265839,110.989708 
	C394.002136,107.484161 388.243225,104.587044 382.420685,102.084854 
	C371.584839,97.428261 360.241882,94.216782 348.381500,94.051132 
	C337.096710,93.893517 325.764130,94.032181 314.523499,94.929329 
	C306.942261,95.534416 299.484131,97.682205 291.643738,98.901947 
	C290.365509,93.692619 289.652679,88.661469 288.422546,83.760139 
	C282.856354,61.581745 273.961426,40.705666 263.200775,20.598232 
	C258.911163,12.582656 253.255539,5.920729 244.224503,2.890436 
	C243.667603,2.703572 243.401428,1.650209 243.000000,1.000000 
z"/>
<path fill="#000000" opacity="1.000000" stroke="none" 
	d="
M228.000000,513.000000 
	C152.367767,513.000000 76.735542,513.000000 1.051659,513.000000 
	C1.051659,342.445465 1.051659,171.890900 1.051659,1.000000 
	C73.687752,1.000000 146.376022,1.000000 219.754791,1.336328 
	C220.117508,2.043119 219.859406,2.613087 219.451935,2.755410 
	C199.662949,9.667558 191.591629,33.063110 200.981903,51.017464 
	C209.030334,66.406197 216.490799,82.057869 220.481949,98.984192 
	C209.039627,96.995827 198.061722,94.069046 186.924118,93.207947 
	C167.581207,91.712471 148.555634,94.557335 130.694870,102.397591 
	C123.452827,105.576591 115.983322,109.445404 110.368614,114.827354 
	C102.823288,122.059898 103.949387,137.628281 113.842819,144.492294 
	C97.023758,160.322235 82.736084,177.735138 71.635811,197.728104 
	C56.321255,225.311493 47.202877,254.886780 45.271797,286.248810 
	C44.302452,301.991608 45.298004,318.053070 47.296658,333.729218 
	C49.612328,351.891846 55.160465,369.365692 62.503433,386.332275 
	C71.811867,407.840332 84.487885,427.040558 99.991776,444.356079 
	C112.531212,458.360718 126.911438,470.420685 142.906693,480.415405 
	C168.431625,496.364838 195.874329,507.156219 225.860809,511.088135 
	C226.643967,511.190857 227.290009,512.339294 228.000000,513.000000 
z"/>
<path fill="#F8485E" opacity="1.000000" stroke="none" 
	d="
M228.468658,513.000000 
	C227.290009,512.339294 226.643967,511.190857 225.860809,511.088135 
	C195.874329,507.156219 168.431625,496.364838 142.906693,480.415405 
	C126.911438,470.420685 112.531212,458.360718 99.991776,444.356079 
	C84.487885,427.040558 71.811867,407.840332 62.503433,386.332275 
	C55.160465,369.365692 49.612328,351.891846 47.296658,333.729218 
	C45.298004,318.053070 44.302452,301.991608 45.271797,286.248810 
	C47.202877,254.886780 56.321255,225.311493 71.635811,197.728104 
	C82.736084,177.735138 97.023758,160.322235 114.203430,144.459366 
	C132.561615,153.400818 151.617798,158.361588 171.627792,159.537140 
	C180.419556,160.053635 189.253372,159.854034 197.873016,160.276733 
	C141.790146,186.661530 108.977898,229.933792 105.116531,291.794952 
	C101.285072,353.177124 127.696892,400.460358 179.820572,432.845703 
	C204.610336,448.248077 232.208099,454.615570 261.382324,453.884003 
	C265.281891,453.786224 269.169098,453.193420 273.369873,452.910828 
	C274.096497,453.067017 274.515289,453.142242 275.023865,453.539490 
	C289.768829,472.013855 306.700348,487.810577 325.061188,502.128174 
	C313.044006,505.091034 301.024414,508.044037 289.013489,511.032013 
	C287.809784,511.331421 286.658844,511.843079 285.741699,512.628113 
	C266.979095,513.000000 247.958206,513.000000 228.468658,513.000000 
z"/>
<path fill="#00C655" opacity="1.000000" stroke="none" 
	d="
M220.874481,98.975601 
	C216.490799,82.057869 209.030334,66.406197 200.981903,51.017464 
	C191.591629,33.063110 199.662949,9.667558 219.451935,2.755410 
	C219.859406,2.613087 220.117508,2.043119 220.222656,1.336328 
	C227.354248,1.000000 234.708496,1.000000 242.531372,1.000000 
	C243.401428,1.650209 243.667603,2.703572 244.224503,2.890436 
	C253.255539,5.920729 258.911163,12.582656 263.200775,20.598232 
	C273.961426,40.705666 282.856354,61.581745 288.422546,83.760139 
	C289.652679,88.661469 290.365509,93.692619 291.437317,99.175331 
	C282.533051,103.394882 273.614838,107.405167 264.427673,110.655121 
	C260.995850,111.869118 256.556671,112.453354 253.233215,111.349121 
	C242.285172,107.711594 231.637512,103.169998 220.874481,98.975601 
z"/>
<path fill="#FF6E80" opacity="1.000000" stroke="none" 
	d="
M325.449280,502.071899 
	C306.700348,487.810577 289.768829,472.013855 275.417450,453.406189 
	C281.107910,451.951111 286.552063,451.190643 291.871582,449.911591 
	C319.980164,443.153015 344.477448,429.879425 365.007385,408.957520 
	C394.428619,378.903198 409.220917,343.068634 409.600830,300.834259 
	C409.398712,295.405701 409.457947,290.379639 408.831879,285.440430 
	C402.330353,234.148376 376.967133,195.125000 332.453247,168.700653 
	C326.888885,165.397537 321.061554,162.537384 315.865417,159.494324 
	C335.071686,160.895615 353.638794,159.871246 371.686523,154.724182 
	C381.342682,151.970337 390.575989,147.733810 400.000122,144.166412 
	C406.317322,150.923401 412.706421,157.614868 418.937012,164.450790 
	C432.561676,179.399246 442.672546,196.659332 450.889648,214.973694 
	C458.194122,231.254013 463.166656,248.289948 466.146118,265.988281 
	C468.681610,281.049530 469.535004,296.136536 468.915741,311.289337 
	C467.973328,334.348053 463.218781,356.716278 454.928314,378.269867 
	C447.545441,397.463776 437.882294,415.588745 424.680054,431.272736 
	C414.142334,443.791290 402.110779,455.141602 390.065277,466.278198 
	C376.337219,478.970398 359.835480,487.602295 342.990875,495.432709 
	C337.450287,498.008331 331.565033,499.842438 325.449280,502.071899 
z"/>
<path fill="#54D37B" opacity="1.000000" stroke="none" 
	d="
M400.311401,144.014450 
	C390.575989,147.733810 381.342682,151.970337 371.686523,154.724182 
	C353.638794,159.871246 335.071686,160.895615 315.568909,159.400482 
	C305.973083,157.991959 300.193146,161.746597 295.408508,169.137329 
	C290.044128,177.423599 283.902649,185.318481 277.280640,192.643600 
	C271.974457,198.513214 265.598846,203.554764 256.612122,204.017151 
	C252.036423,202.161377 246.927841,201.361572 243.838516,198.432220 
	C235.758148,190.770294 228.560287,182.177658 220.920410,173.623627 
	C219.902588,171.719177 218.938400,170.167435 218.053635,168.571655 
	C214.199692,161.620621 208.540695,158.135727 200.082794,159.319580 
	C199.134445,159.560379 198.528229,159.796219 197.961487,160.027191 
	C198.000977,160.022324 198.068100,159.979584 198.068100,159.979584 
	C189.253372,159.854034 180.419556,160.053635 171.627792,159.537140 
	C151.617798,158.361588 132.561615,153.400818 114.345367,144.167419 
	C103.949387,137.628281 102.823288,122.059898 110.368614,114.827354 
	C115.983322,109.445404 123.452827,105.576591 130.694870,102.397591 
	C148.555634,94.557335 167.581207,91.712471 186.924118,93.207947 
	C198.061722,94.069046 209.039627,96.995827 220.481949,98.984192 
	C231.637512,103.169998 242.285172,107.711594 253.233215,111.349121 
	C256.556671,112.453354 260.995850,111.869118 264.427673,110.655121 
	C273.614838,107.405167 282.533051,103.394882 291.764526,99.413284 
	C299.484131,97.682205 306.942261,95.534416 314.523499,94.929329 
	C325.764130,94.032181 337.096710,93.893517 348.381500,94.051132 
	C360.241882,94.216782 371.584839,97.428261 382.420685,102.084854 
	C388.243225,104.587044 394.002136,107.484161 399.265839,110.989708 
	C410.965057,118.781158 411.323578,135.702927 400.311401,144.014450 
z"/>
<path fill="#D3D3FE" opacity="1.000000" stroke="none" 
	d="
M200.424911,159.314651 
	C208.540695,158.135727 214.199692,161.620621 218.053635,168.571655 
	C218.938400,170.167435 219.902588,171.719177 220.709732,173.908997 
	C219.573349,176.978561 218.424530,179.384567 217.562668,181.889313 
	C210.834839,201.441772 206.164169,221.469452 205.014038,242.144257 
	C204.259018,255.716705 203.729431,269.356598 204.221466,282.925568 
	C204.591553,293.131989 206.745163,303.273773 207.951218,313.720581 
	C198.769028,323.061279 189.602585,331.993500 180.748062,341.224884 
	C170.538254,351.869202 170.701675,367.373169 180.815445,377.526001 
	C190.823349,387.572662 206.502945,387.595886 217.151001,377.578491 
	C219.442474,375.422699 221.729507,373.262207 224.180756,371.412964 
	C231.170807,385.344818 237.923294,399.006439 244.906967,412.548859 
	C245.966583,414.603577 248.100052,416.104492 249.800812,418.278381 
	C249.770020,422.645569 250.832077,425.880615 255.151352,427.477661 
	C256.117615,429.381592 256.882629,431.049591 257.945587,432.499084 
	C262.939545,439.308929 268.015411,446.058655 273.062012,452.829865 
	C269.169098,453.193420 265.281891,453.786224 261.382324,453.884003 
	C232.208099,454.615570 204.610336,448.248077 179.820572,432.845703 
	C127.696892,400.460358 101.285072,353.177124 105.116531,291.794952 
	C108.977898,229.933792 141.790146,186.661530 197.873016,160.276733 
	C198.068100,159.979584 198.000977,160.022324 198.287720,159.996262 
	C199.191269,159.751694 199.808090,159.533173 200.424911,159.314651 
M150.707153,295.515167 
	C146.486816,295.023071 142.268280,294.166107 138.045593,294.145020 
	C134.090637,294.125275 131.477097,296.672028 131.146591,300.647369 
	C130.799225,304.825409 133.003662,307.820526 137.119949,308.610352 
	C140.007965,309.164490 143.103455,309.135956 146.045364,308.812836 
	C153.522232,307.991516 155.818604,302.226868 150.707153,295.515167 
M168.510727,211.979919 
	C167.868530,214.850861 165.849319,218.438751 166.888351,220.434372 
	C168.708084,223.929504 172.050049,226.972214 175.406174,229.239487 
	C179.418594,231.950134 184.651169,229.494949 185.700073,225.029724 
	C187.122437,218.974670 182.503601,216.021515 178.994705,212.645844 
	C176.116089,209.876495 172.745911,208.903061 168.510727,211.979919 
z"/>
<path fill="#EEECFF" opacity="1.000000" stroke="none" 
	d="
M249.736786,417.861603 
	C248.100052,416.104492 245.966583,414.603577 244.906967,412.548859 
	C237.923294,399.006439 231.170807,385.344818 224.332245,371.110901 
	C235.625153,359.051483 246.928741,347.603271 258.629089,336.096405 
	C267.774231,335.304810 275.237701,331.671753 281.975281,326.238403 
	C298.063141,342.362152 313.954376,358.204041 329.708557,374.384827 
	C329.209808,377.386047 327.833008,380.432861 328.669495,382.641327 
	C331.620209,390.431671 339.333923,393.598572 347.127197,391.193329 
	C353.085114,397.370148 358.916351,403.231628 364.747589,409.093140 
	C344.477448,429.879425 319.980164,443.153015 291.871582,449.911591 
	C286.552063,451.190643 281.107910,451.951111 275.327667,453.084167 
	C274.515289,453.142242 274.096497,453.067017 273.369873,452.910828 
	C268.015411,446.058655 262.939545,439.308929 257.945587,432.499084 
	C256.882629,431.049591 256.117615,429.381592 255.556183,427.470459 
	C262.426239,426.664764 264.015472,425.034149 264.141479,418.600861 
	C264.180389,416.615265 264.199249,414.626038 264.127563,412.642090 
	C263.938995,407.422272 261.689026,404.971283 257.117523,404.915710 
	C252.493683,404.859497 250.116272,407.299377 249.872726,412.401703 
	C249.785950,414.219666 249.779770,416.041534 249.736786,417.861603 
z"/>
<path fill="#F8D071" opacity="1.000000" stroke="none" 
	d="
M256.999390,204.102676 
	C265.598846,203.554764 271.974457,198.513214 277.280640,192.643600 
	C283.902649,185.318481 290.044128,177.423599 295.408508,169.137329 
	C300.193146,161.746597 305.973083,157.991959 315.059540,159.378128 
	C321.061554,162.537384 326.888885,165.397537 332.453247,168.700653 
	C376.967133,195.125000 402.330353,234.148376 408.831879,285.440430 
	C409.457947,290.379639 409.398712,295.405701 409.167419,300.836792 
	C400.183411,301.302155 391.689545,301.322174 383.130096,300.957825 
	C380.775238,294.570831 379.524658,293.913483 370.548187,293.994263 
	C363.633026,294.056488 362.061890,295.124847 359.441162,301.236755 
	C336.643921,301.244629 314.309204,301.247955 291.871796,300.843689 
	C288.917145,279.387726 277.889099,268.682404 256.995361,266.235779 
	C256.993500,245.225494 256.996460,224.664078 256.999390,204.102676 
M330.448944,217.135406 
	C327.395599,220.821426 326.758270,224.902802 330.256531,228.321381 
	C333.183533,231.181778 337.008942,230.831482 340.213379,228.206543 
	C342.259186,226.530701 344.088867,224.567062 345.877075,222.606262 
	C348.750427,219.455582 348.915436,216.058517 346.190765,212.746948 
	C343.494019,209.469315 339.590546,209.079834 336.008240,211.800110 
	C334.170441,213.195679 332.629791,214.982529 330.448944,217.135406 
z"/>
<path fill="#32CDF9" opacity="1.000000" stroke="none" 
	d="
M383.195709,301.342163 
	C391.689545,301.322174 400.183411,301.302155 409.110657,301.279602 
	C409.220917,343.068634 394.428619,378.903198 365.007385,408.957520 
	C358.916351,403.231628 353.085114,397.370148 347.192474,390.806335 
	C350.187927,382.794342 345.444733,378.635315 340.814331,374.411987 
	C337.246796,371.158020 333.580383,371.805908 329.845581,374.045929 
	C313.954376,358.204041 298.063141,342.362152 282.135468,325.931763 
	C288.469574,318.574585 291.148315,310.292603 291.974487,301.251251 
	C314.309204,301.247955 336.643921,301.244629 359.514282,301.582367 
	C362.511749,308.388611 364.090820,309.184906 373.935455,308.925507 
	C379.738708,308.772583 381.757233,307.119629 383.195709,301.342163 
z"/>
<path fill="#EEECFF" opacity="1.000000" stroke="none" 
	d="
M256.612122,204.017151 
	C256.996460,224.664078 256.993500,245.225494 256.568237,266.323730 
	C237.557358,267.937653 225.143707,279.866241 222.328323,299.380981 
	C217.449478,304.217224 212.777145,308.830780 208.104828,313.444336 
	C206.745163,303.273773 204.591553,293.131989 204.221466,282.925568 
	C203.729431,269.356598 204.259018,255.716705 205.014038,242.144257 
	C206.164169,221.469452 210.834839,201.441772 217.562668,181.889313 
	C218.424530,179.384567 219.573349,176.978561 220.799927,174.241440 
	C228.560287,182.177658 235.758148,190.770294 243.838516,198.432220 
	C246.927841,201.361572 252.036423,202.161377 256.612122,204.017151 
z"/>
<path fill="#F8485E" opacity="1.000000" stroke="none" 
	d="
M200.082794,159.319580 
	C199.808090,159.533173 199.191269,159.751694 198.248230,160.001129 
	C198.528229,159.796219 199.134445,159.560379 200.082794,159.319580 
z"/>
<path fill="#55D37C" opacity="1.000000" stroke="none" 
	d="
M207.951202,313.720581 
	C212.777145,308.830780 217.449478,304.217224 222.384094,299.815826 
	C221.750961,319.171204 236.461426,335.866150 258.232330,336.155060 
	C246.928741,347.603271 235.625153,359.051483 224.170074,370.801788 
	C221.729507,373.262207 219.442474,375.422699 217.151001,377.578491 
	C206.502945,387.595886 190.823349,387.572662 180.815445,377.526001 
	C170.701675,367.373169 170.538254,351.869202 180.748062,341.224884 
	C189.602585,331.993500 198.769028,323.061279 207.951202,313.720581 
z"/>
<path fill="#B8BAF0" opacity="1.000000" stroke="none" 
	d="
M151.014847,295.761414 
	C155.818604,302.226868 153.522232,307.991516 146.045364,308.812836 
	C143.103455,309.135956 140.007965,309.164490 137.119949,308.610352 
	C133.003662,307.820526 130.799225,304.825409 131.146591,300.647369 
	C131.477097,296.672028 134.090637,294.125275 138.045593,294.145020 
	C142.268280,294.166107 146.486816,295.023071 151.014847,295.761414 
z"/>
<path fill="#B7BAF0" opacity="1.000000" stroke="none" 
	d="
M168.802734,211.721252 
	C172.745911,208.903061 176.116089,209.876495 178.994705,212.645844 
	C182.503601,216.021515 187.122437,218.974670 185.700073,225.029724 
	C184.651169,229.494949 179.418594,231.950134 175.406174,229.239487 
	C172.050049,226.972214 168.708084,223.929504 166.888351,220.434372 
	C165.849319,218.438751 167.868530,214.850861 168.802734,211.721252 
z"/>
<path fill="#B8BBF0" opacity="1.000000" stroke="none" 
	d="
M249.800812,418.278381 
	C249.779770,416.041534 249.785950,414.219666 249.872726,412.401703 
	C250.116272,407.299377 252.493683,404.859497 257.117523,404.915710 
	C261.689026,404.971283 263.938995,407.422272 264.127563,412.642090 
	C264.199249,414.626038 264.180389,416.615265 264.141479,418.600861 
	C264.015472,425.034149 262.426239,426.664764 255.492218,427.133850 
	C250.832077,425.880615 249.770020,422.645569 249.800812,418.278381 
z"/>
<path fill="#5E6B84" opacity="1.000000" stroke="none" 
	d="
M258.629089,336.096405 
	C236.461426,335.866150 221.750961,319.171204 222.590607,299.593170 
	C225.143707,279.866241 237.557358,267.937653 256.573059,266.772614 
	C277.889099,268.682404 288.917145,279.387726 291.871796,300.843689 
	C291.148315,310.292603 288.469574,318.574585 281.938812,325.649902 
	C275.237701,331.671753 267.774231,335.304810 258.629089,336.096405 
z"/>
<path fill="#03B4FC" opacity="1.000000" stroke="none" 
	d="
M329.708557,374.384827 
	C333.580383,371.805908 337.246796,371.158020 340.814331,374.411987 
	C345.444733,378.635315 350.187927,382.794342 347.065796,390.491028 
	C339.333923,393.598572 331.620209,390.431671 328.669495,382.641327 
	C327.833008,380.432861 329.209808,377.386047 329.708557,374.384827 
z"/>
<path fill="#F6B65B" opacity="1.000000" stroke="none" 
	d="
M383.130096,300.957825 
	C381.757233,307.119629 379.738708,308.772583 373.935455,308.925507 
	C364.090820,309.184906 362.511749,308.388611 359.976807,301.577820 
	C362.061890,295.124847 363.633026,294.056488 370.548187,293.994263 
	C379.524658,293.913483 380.775238,294.570831 383.130096,300.957825 
z"/>
<path fill="#F9B558" opacity="1.000000" stroke="none" 
	d="
M330.701904,216.863983 
	C332.629791,214.982529 334.170441,213.195679 336.008240,211.800110 
	C339.590546,209.079834 343.494019,209.469315 346.190765,212.746948 
	C348.915436,216.058517 348.750427,219.455582 345.877075,222.606262 
	C344.088867,224.567062 342.259186,226.530701 340.213379,228.206543 
	C337.008942,230.831482 333.183533,231.181778 330.256531,228.321381 
	C326.758270,224.902802 327.395599,220.821426 330.701904,216.863983 
z"/>
</svg>