<svg id="Capa_1" enable-background="new 0 0 512 512" viewBox="0 0 512 512"
    xmlns="http://www.w3.org/2000/svg">
    <g>
        <path
            d="m223.803 160.582c1.874-23.653 1.922-42.536-3.622-63.558-3.762-14.26-10.13-29.555-19.469-46.757-8.966-16.516-2.846-37.172 13.67-46.138 16.515-8.965 37.173-2.846 46.138 13.67 11.968 22.044 20.297 42.282 25.463 61.87 7.976 30.242 8.031 56.366 5.66 86.289z"
            fill="#00c655" />
        <path
            d="m370.41 122.232h-228.82c-58.505 37.66-97.254 103.355-97.254 178.104 0 116.899 94.765 211.664 211.664 211.664s211.664-94.765 211.664-211.664c0-74.749-38.749-140.444-97.254-178.104z"
            fill="#ff6e80" />
        <path
            d="m323.518 500.998c-153.376-121.896-136.245-296.368-82.12-367.907l-3.084-10.86h-96.724c-58.505 37.66-97.254 103.356-97.254 178.104 0 116.9 94.765 211.665 211.664 211.665 23.609 0 46.313-3.87 67.518-11.002z"
            fill="#f8475e" />
        <path
            d="m256 147.685c-8.695 0-17.216.738-25.514 2.134-93.141 74.191-85.176 234.287 42.345 302.24 35.432-3.887 67.21-19.903 91.107-43.799-11.627-88.108-82.301-237.979-107.938-260.575z"
            fill="#eeecff" />
        <path
            d="m230.486 149.819c-72.16 12.144-127.137 74.905-127.137 150.517 0 84.307 68.344 152.651 152.651 152.651 5.689 0 11.303-.322 16.831-.928-89.762-106.412-80.975-233.833-42.345-302.24z"
            fill="#d3d3ff" />
        <path
            d="m408.651 300.336-61.465-45.676-91.186 45.676 107.941 107.941c27.624-27.625 44.71-65.788 44.71-107.941z"
            fill="#30cdfa" />
        <path d="m256 147.685v152.651h152.651c0-84.307-68.344-152.651-152.651-152.651z"
            fill="#f8d071" />
        <path
            d="m267.083 199.341c11.714-8.354 19.992-17.796 28.875-33.455 3.045-5.368 8.982-8.389 15.123-7.772 28.461 2.858 61.15-.869 86.009-14.581 12.562-6.93 13.229-24.752 1.317-32.748-18.021-12.097-39.838-18.008-62.499-18.285s-46.167 5.08-67.565 15.519c-7.799 3.805-16.887 3.805-24.685 0-21.077-10.282-44.199-15.634-66.544-15.527-23.026.11-45.229 6.015-63.52 18.294-11.912 7.996-11.245 25.818 1.317 32.748 24.859 13.712 57.548 17.44 86.009 14.581 6.141-.617 12.077 2.404 15.123 7.772 8.883 15.659 17.161 25.101 28.875 33.455 6.615 4.718 15.549 4.718 22.165-.001z"
            fill="#54d37b" />
        <path
            d="m179.773 376.563c-10.058-10.058-10.058-26.365 0-36.422l58.016-58.016c10.057-10.058 26.365-10.057 36.422 0 10.057 10.058 10.057 26.365 0 36.423l-58.015 58.016c-10.058 10.057-26.364 10.057-36.423-.001z"
            fill="#54d37b" />
        <ellipse cx="256" cy="300.336" fill="#5d6a84" rx="34.584" ry="34.584"
            transform="matrix(.84 -.543 .543 .84 -122.046 187.115)" />
        <g fill="#b7baf0">
            <path
                d="m145.31 307.836h-7.965c-4.142 0-7.5-3.358-7.5-7.5s3.358-7.5 7.5-7.5h7.965c4.142 0 7.5 3.358 7.5 7.5s-3.358 7.5-7.5 7.5z" />
            <path
                d="m177.73 229.566c-1.919 0-3.839-.732-5.303-2.197l-5.632-5.632c-2.929-2.929-2.929-7.678 0-10.606 2.929-2.929 7.678-2.929 10.607 0l5.632 5.632c2.929 2.929 2.929 7.678 0 10.606-1.465 1.465-3.384 2.197-5.304 2.197z" />
            <path
                d="m256 426.491c-4.142 0-7.5-3.358-7.5-7.5v-7.965c0-4.142 3.358-7.5 7.5-7.5 4.143 0 7.5 3.358 7.5 7.5v7.965c0 4.142-3.357 7.5-7.5 7.5z" />
        </g>
        <g fill="#f9b558">
            <path
                d="m334.27 229.566c-1.92 0-3.839-.732-5.304-2.197-2.929-2.929-2.929-7.678.001-10.607l5.633-5.632c2.929-2.929 7.678-2.927 10.607 0 2.929 2.929 2.929 7.678-.001 10.607l-5.633 5.632c-1.465 1.465-3.384 2.197-5.303 2.197z" />
            <path
                d="m374.655 307.836h-7.965c-4.142 0-7.5-3.358-7.5-7.5s3.358-7.5 7.5-7.5h7.965c4.143 0 7.5 3.358 7.5 7.5s-3.357 7.5-7.5 7.5z" />
        </g>
        <path
            d="m339.902 391.738c-1.919 0-3.839-.732-5.303-2.196l-5.633-5.632c-2.93-2.929-2.93-7.678-.001-10.607 2.93-2.929 7.679-2.929 10.607 0l5.633 5.632c2.93 2.929 2.93 7.678.001 10.607-1.465 1.463-3.385 2.196-5.304 2.196z"
            fill="#00b3fc" />
    </g>
    <g />
    <g />
    <g />
    <g />
    <g />
    <g />
    <g />
    <g />
    <g />
    <g />
    <g />
    <g />
    <g />
    <g />
    <g />
</svg>